<?xml version="1.0" ?>
<!-- Uploaded to: SVG Repo, www.svgrepo.com, Generator: SVG Repo Mixer Tools -->
<svg width="800px" height="800px" viewBox="0 0 24 24" fill="none" xmlns="http://www.w3.org/2000/svg">
<g clip-path="url(#clip0_201_1550)">
<path d="M9.89948 16.9706L17.3359 9.53417C18.4038 8.46623 19.1476 7.11781 19.4813 5.64485L19.799 4.24264L18.3968 4.5603C16.9238 4.89399 15.5754 5.63781 14.5075 6.70574L9.19237 12.0208M9.89948 16.9706L12.0208 20.5061C13.1993 19.3276 14.8492 17.6777 12.0208 14.8492L9.89948 16.9706ZM9.89948 16.9706L7.07105 14.1421M7.07105 14.1421L3.53552 12.0208C4.71403 10.8423 6.36395 9.19239 9.19237 12.0208M7.07105 14.1421L9.19237 12.0208M4.94973 16.2635C4.94973 16.2635 3.24698 18.8033 4.24263 19.799C5.23827 20.7946 7.77816 19.0919 7.77816 19.0919" stroke="#000000" stroke-linecap="round" stroke-linejoin="round" stroke-width="2"/>
</g>
<defs>
<clipPath id="clip0_201_1550">
<rect fill="white" height="24" width="24"/>
</clipPath>
</defs>
</svg>